<svg width="124" height="20" viewBox="0 0 124 20" fill="none" xmlns="http://www.w3.org/2000/svg">
<path d="M45.8085 19.6402V0.172852H62.2347V5.1994H54.0485C53.3906 5.1994 52.857 5.73805 52.857 6.4023C52.857 7.06655 53.3906 7.60519 54.0485 7.60519H62.2347V12.3057H53.9612C53.3511 12.3057 52.857 12.8044 52.857 13.4204C52.857 14.0363 53.3511 14.5351 53.9612 14.5351H62.2347V19.6414H45.8085V19.6402Z" fill="#2D00FB"/>
<path d="M101.816 19.64V13.2777H97.9842C96.8358 13.2777 95.9039 13.111 95.9039 11.4975V0.22583H87.3241V19.64H101.816Z" fill="#2D00FB"/>
<path d="M41.0962 9.43954C40.8809 9.24993 40.8497 8.92505 41.0244 8.69679C41.674 7.85259 42.1872 6.82844 42.1848 5.47337C42.1812 3.45889 41.4527 2.06759 39.9585 1.21976C38.7467 0.532569 37.0456 0.213729 34.6075 0.21856H23.9857V19.6315H34.976C37.432 19.6267 39.352 19.1364 40.6823 18.175C42.1537 17.111 42.8978 15.4818 42.8942 13.3332C42.8918 11.6726 42.1453 10.3622 41.0962 9.43954ZM32.9208 15.4552C32.9016 15.4552 32.8837 15.4552 32.8645 15.454C32.2796 15.4407 31.7341 15.1968 31.3297 14.7692C30.9254 14.3417 30.71 13.7801 30.7244 13.1895C30.7519 11.9794 31.7125 11.0301 32.9112 11.0277C32.9303 11.0277 32.9483 11.0277 32.9674 11.0289C33.5524 11.0422 34.0979 11.2862 34.5023 11.7137C34.9066 12.1412 35.1219 12.7028 35.1076 13.2934C35.0801 14.5023 34.1194 15.4528 32.9208 15.4552ZM32.9208 8.94075C32.9016 8.94075 32.8837 8.94075 32.8645 8.93954C32.2796 8.92626 31.7341 8.6823 31.3297 8.25476C30.9254 7.82723 30.71 7.26564 30.7244 6.67506C30.7519 5.46492 31.7125 4.51565 32.9112 4.51323C32.9303 4.51323 32.9483 4.51323 32.9674 4.51444C33.5524 4.52772 34.0979 4.77168 34.5023 5.19922C34.9066 5.62675 35.1219 6.18835 35.1076 6.77892C35.0801 7.98907 34.1194 8.93954 32.9208 8.94075Z" fill="#2D00FB"/>
<path d="M80.7757 12.035C80.4934 11.9589 80.4324 11.5507 80.9456 11.3055C82.7939 10.192 83.7975 8.72945 83.7975 6.564C83.7975 0.948076 79.0794 0.228271 74.9689 0.228271H65.8269V19.6425H73.3683V14.7089H74.3002C76.6437 14.7089 77.273 17.2572 77.273 19.6425H84.7893C84.7905 14.9323 83.4339 12.756 80.7757 12.035ZM74.3122 9.57969C74.2918 9.57969 74.2703 9.57969 74.25 9.57848C73.598 9.56278 72.9903 9.29225 72.5405 8.81641C72.0907 8.33935 71.8502 7.71496 71.8658 7.05675C71.8969 5.70893 72.9664 4.65096 74.3014 4.64855C74.3217 4.64855 74.3433 4.64855 74.3636 4.64975C75.0156 4.66545 75.6233 4.93598 76.0731 5.41183C76.5241 5.88888 76.7634 6.51327 76.7478 7.17148C76.7179 8.51931 75.6472 9.57727 74.3122 9.57969Z" fill="#2D00FB"/>
<path d="M18.2039 2.60388C16.2695 0.919108 13.7418 -0.00600925 10.702 2.93766e-05C7.72085 0.006068 5.02681 0.940847 3.11515 2.63287C1.07189 4.44204 -0.00476926 6.99638 1.58812e-05 10.0193C0.00599731 13.0422 1.09223 15.593 3.14146 17.3949C5.05911 19.0797 7.75674 20.006 10.7367 20C13.7765 19.9939 16.3006 19.0591 18.229 17.3683C20.2843 15.5652 21.3681 13.0096 21.3621 9.98067C21.3573 6.95049 20.2651 4.40098 18.2039 2.60388ZM10.6817 13.1437C8.9614 13.1437 7.56772 11.7355 7.56772 9.99999C7.56772 8.26449 8.96259 6.85628 10.6817 6.85628C12.4019 6.85628 13.7956 8.26449 13.7956 9.99999C13.7956 11.7355 12.4019 13.1437 10.6817 13.1437Z" fill="#2D00FB"/>
<path d="M120.814 2.60388C118.88 0.919108 116.352 -0.00600925 113.312 2.93766e-05C110.331 0.00486028 107.637 0.940847 105.727 2.63287C103.683 4.44204 102.605 6.99638 102.611 10.0193C102.616 13.0423 103.704 15.593 105.753 17.3949C107.671 19.0797 110.368 20.006 113.348 20C116.388 19.9939 118.912 19.0591 120.84 17.3683C122.896 15.5652 123.98 13.0096 123.974 9.98067C123.968 6.95049 122.875 4.40098 120.814 2.60388ZM113.292 13.1437C111.572 13.1437 110.178 11.7355 110.178 9.99999C110.178 8.26449 111.573 6.85628 113.292 6.85628C115.012 6.85628 116.406 8.26449 116.406 9.99999C116.406 11.7355 115.012 13.1437 113.292 13.1437Z" fill="#2D00FB"/>
</svg>
